<svg class="svg-icon" style="width: 1em; height: 1em;vertical-align: middle;fill: currentColor;overflow: hidden;" viewBox="0 0 1024 1024" version="1.1" xmlns="http://www.w3.org/2000/svg"><path fill="#c70101" d="M710.5 633.5l51-51q9.5-9.5 9.5-22.5t-9.5-22.5l-227-227q-9.5-9.5-22.5-9.5t-22.5 9.5l-227 227q-9.5 9.5-9.5 22.5t9.5 22.5l51 51q9.5 9.5 22.5 9.5t22.5-9.5l153.5-153.5 153.5 153.5q9.5 9.5 22.5 9.5t22.5-9.5zm185.5-121.5q0 104.5-51.5 192.75t-139.75 139.75-192.75 51.5-192.75-51.5-139.75-139.75-51.5-192.75 51.5-192.75 139.75-139.75 192.75-51.5 192.75 51.5 139.75 139.75 51.5 192.75z"  /></svg>